<?xml version="1.0" encoding="UTF-8"?>
<svg width="413px" height="142px" viewBox="0 0 413 142" version="1.1" xmlns="http://www.w3.org/2000/svg" xmlns:xlink="http://www.w3.org/1999/xlink">
    <title>General Services Administration | Technology Transformation Services</title>
    <desc>GSA | TTS logos</desc>
    <defs>
        <path d="M201.528,41 L206.264,41 L206.264,24.104 L211.992,24.104 L211.992,20.136 L195.8,20.136 L195.8,24.104 L201.528,24.104 L201.528,41 Z M219.544,41.384 C221.432,41.384 223.544,40.712 225.176,39.592 L223.608,36.744 C222.456,37.448 221.368,37.8 220.184,37.8 C218.072,37.8 216.472,36.744 216.056,34.44 L225.56,34.44 C225.656,34.056 225.752,33.192 225.752,32.36 C225.752,28.04 223.512,24.744 219,24.744 C215.192,24.744 211.512,27.912 211.512,33.064 C211.512,38.312 215,41.384 219.544,41.384 Z M216.024,31.336 C216.344,29.32 217.624,28.328 219.096,28.328 C220.984,28.328 221.752,29.576 221.752,31.336 L216.024,31.336 Z M235.928,41.384 C237.656,41.384 239.608,40.872 241.176,39.496 L239.32,36.424 C238.488,37.064 237.496,37.576 236.472,37.576 C234.424,37.576 232.92,35.816 232.92,33.064 C232.92,30.312 234.36,28.552 236.632,28.552 C237.368,28.552 238.008,28.84 238.776,29.48 L240.984,26.44 C239.8,25.448 238.296,24.744 236.344,24.744 C231.96,24.744 228.088,27.784 228.088,33.064 C228.088,38.344 231.512,41.384 235.928,41.384 Z M243.96,41 L248.664,41 L248.664,30.28 C249.688,29.288 250.424,28.744 251.608,28.744 C252.952,28.744 253.56,29.448 253.56,31.752 L253.56,41 L258.264,41 L258.264,31.144 C258.264,27.176 256.792,24.744 253.336,24.744 C251.192,24.744 249.624,25.864 248.44,26.92 L248.664,24.072 L248.664,18.568 L243.96,18.568 L243.96,41 Z M262.232,41 L266.936,41 L266.936,30.28 C267.96,29.288 268.696,28.744 269.88,28.744 C271.224,28.744 271.832,29.448 271.832,31.752 L271.832,41 L276.536,41 L276.536,31.144 C276.536,27.176 275.064,24.744 271.608,24.744 C269.464,24.744 267.864,25.864 266.52,27.144 L266.392,27.144 L266.072,25.128 L262.232,25.128 L262.232,41 Z M287.352,41.384 C291.352,41.384 295.064,38.344 295.064,33.064 C295.064,27.784 291.352,24.744 287.352,24.744 C283.32,24.744 279.608,27.784 279.608,33.064 C279.608,38.344 283.32,41.384 287.352,41.384 Z M287.352,37.576 C285.4,37.576 284.44,35.816 284.44,33.064 C284.44,30.312 285.4,28.552 287.352,28.552 C289.272,28.552 290.264,30.312 290.264,33.064 C290.264,35.816 289.272,37.576 287.352,37.576 Z M302.616,41.384 C303.672,41.384 304.472,41.224 304.984,41 L304.408,37.512 C304.152,37.576 304.024,37.576 303.832,37.576 C303.448,37.576 303,37.256 303,36.264 L303,18.568 L298.296,18.568 L298.296,36.072 C298.296,39.272 299.384,41.384 302.616,41.384 Z M314.264,41.384 C318.264,41.384 321.976,38.344 321.976,33.064 C321.976,27.784 318.264,24.744 314.264,24.744 C310.232,24.744 306.52,27.784 306.52,33.064 C306.52,38.344 310.232,41.384 314.264,41.384 Z M314.264,37.576 C312.312,37.576 311.352,35.816 311.352,33.064 C311.352,30.312 312.312,28.552 314.264,28.552 C316.184,28.552 317.176,30.312 317.176,33.064 C317.176,35.816 316.184,37.576 314.264,37.576 Z M330.872,47.752 C336.312,47.752 339.736,45.352 339.736,42.056 C339.736,39.208 337.592,38.024 333.688,38.024 L331.128,38.024 C329.368,38.024 328.728,37.64 328.728,36.84 C328.728,36.296 328.888,36.008 329.304,35.656 C330.008,35.88 330.648,35.976 331.224,35.976 C334.712,35.976 337.464,34.28 337.464,30.632 C337.464,29.8 337.24,29.032 336.952,28.552 L339.48,28.552 L339.48,25.128 L333.688,25.128 C332.984,24.872 332.12,24.744 331.224,24.744 C327.8,24.744 324.664,26.664 324.664,30.472 C324.664,32.328 325.688,33.832 326.808,34.6 L326.808,34.728 C325.784,35.432 325.016,36.552 325.016,37.704 C325.016,39.016 325.656,39.848 326.488,40.392 L326.488,40.52 C325.016,41.352 324.216,42.408 324.216,43.72 C324.216,46.536 327.16,47.752 330.872,47.752 Z M331.224,33.128 C329.976,33.128 329.048,32.232 329.048,30.472 C329.048,28.776 329.976,27.912 331.224,27.912 C332.472,27.912 333.4,28.808 333.4,30.472 C333.4,32.232 332.472,33.128 331.224,33.128 Z M331.608,44.808 C329.496,44.808 328.088,44.168 328.088,42.984 C328.088,42.408 328.376,41.928 328.952,41.416 C329.464,41.544 330.104,41.608 331.192,41.608 L332.824,41.608 C334.392,41.608 335.256,41.864 335.256,42.856 C335.256,43.944 333.72,44.808 331.608,44.808 Z M344.184,47.208 C343.224,47.208 342.584,47.08 341.944,46.888 L342.776,43.304 L343.099556,43.3822222 C343.334222,43.4391111 343.597333,43.496 343.832,43.496 C345.4,43.496 346.2,42.664 346.616,41.416 L346.84,40.584 L340.728,25.128 L345.464,25.128 L347.736,31.944 C348.184,33.384 348.568,34.888 348.984,36.456 L349.112,36.456 C349.464,34.952 349.816,33.448 350.2,31.944 L352.12,25.128 L356.632,25.128 L351.128,41.16 L350.900728,41.745348 C349.44928,45.35968 347.7408,47.208 344.184,47.208 Z" id="path-1"></path>
        <path d="M201.528,81 L206.264,81 L206.264,64.104 L211.992,64.104 L211.992,60.136 L195.8,60.136 L195.8,64.104 L201.528,64.104 L201.528,81 Z M213.528,81 L218.232,81 L218.232,71.784 C219.064,69.64 220.536,68.872 221.72,68.872 C222.392,68.872 222.872,68.968 223.448,69.128 L224.216,65.064 C223.768,64.872 223.224,64.744 222.328,64.744 C220.696,64.744 218.968,65.768 217.816,67.912 L217.688,67.912 L217.368,65.128 L213.528,65.128 L213.528,81 Z M229.368,81.384 C231.16,81.384 232.632,80.552 233.976,79.368 L234.104,79.368 L234.424,81 L238.264,81 L238.264,71.912 C238.264,67.048 236.024,64.744 231.96,64.744 C229.464,64.744 227.192,65.608 225.176,66.824 L226.872,69.928 C228.408,69.032 229.72,68.488 231.064,68.488 C232.792,68.488 233.464,69.384 233.56,70.792 L232.838743,70.8727759 C227.083771,71.5773718 224.632,73.3865098 224.632,76.584 C224.632,79.272 226.456,81.384 229.368,81.384 Z M230.968,77.736 C229.848,77.736 229.144,77.256 229.144,76.232 C229.144,75.016 230.232,74.056 233.56,73.608 L233.56,76.392 C232.728,77.224 232.024,77.736 230.968,77.736 Z M242.232,81 L246.936,81 L246.936,70.28 C247.96,69.288 248.696,68.744 249.88,68.744 C251.224,68.744 251.832,69.448 251.832,71.752 L251.832,81 L256.536,81 L256.536,71.144 C256.536,67.176 255.064,64.744 251.608,64.744 C249.464,64.744 247.864,65.864 246.52,67.144 L246.392,67.144 L246.072,65.128 L242.232,65.128 L242.232,81 Z M265.208,81.384 C269.464,81.384 271.736,79.144 271.736,76.264 C271.736,73.4402424 269.599611,72.3015243 267.631908,71.5640061 L266.467873,71.1373542 C265.290444,70.7002222 264.408,70.2906667 264.408,69.48 C264.408,68.68 265.016,68.232 266.232,68.232 C267.32,68.232 268.44,68.744 269.56,69.576 L271.672,66.76 C270.328,65.736 268.504,64.744 266.072,64.744 C262.424,64.744 259.992,66.76 259.992,69.704 C259.992,72.1587097 261.924287,73.4652487 263.745461,74.2261582 L264.12,74.376 C265.752,75.016 267.352,75.496 267.352,76.552 C267.352,77.384 266.744,77.896 265.336,77.896 C263.992,77.896 262.68,77.32 261.24,76.232 L259.128,79.176 C260.728,80.488 263.128,81.384 265.208,81.384 Z M275.512,81 L280.216,81 L280.216,68.808 L283.064,68.808 L283.064,65.128 L280.216,65.128 L280.216,64.168 C280.216,62.536 280.888,61.896 282.04,61.896 C282.552,61.896 283.128,62.024 283.672,62.216 L284.536,58.76 C283.832,58.504 282.68,58.184 281.368,58.184 C277.08,58.184 275.512,60.936 275.512,64.296 L275.512,65.16 L273.4,65.32 L273.4,68.808 L275.512,68.808 L275.512,81 Z M292.12,81.384 C296.12,81.384 299.832,78.344 299.832,73.064 C299.832,67.784 296.12,64.744 292.12,64.744 C288.088,64.744 284.376,67.784 284.376,73.064 C284.376,78.344 288.088,81.384 292.12,81.384 Z M292.12,77.576 C290.168,77.576 289.208,75.816 289.208,73.064 C289.208,70.312 290.168,68.552 292.12,68.552 C294.04,68.552 295.032,70.312 295.032,73.064 C295.032,75.816 294.04,77.576 292.12,77.576 Z M303.064,81 L307.768,81 L307.768,71.784 C308.6,69.64 310.072,68.872 311.256,68.872 C311.928,68.872 312.408,68.968 312.984,69.128 L313.752,65.064 C313.304,64.872 312.76,64.744 311.864,64.744 C310.232,64.744 308.504,65.768 307.352,67.912 L307.224,67.912 L306.904,65.128 L303.064,65.128 L303.064,81 Z M315.8,81 L320.504,81 L320.504,70.28 C321.496,69.256 322.424,68.744 323.192,68.744 C324.536,68.744 325.144,69.448 325.144,71.752 L325.144,81 L329.848,81 L329.848,70.28 C330.872,69.256 331.768,68.744 332.568,68.744 C333.912,68.744 334.52,69.448 334.52,71.752 L334.52,81 L339.224,81 L339.224,71.144 C339.224,67.176 337.688,64.744 334.264,64.744 C332.152,64.744 330.68,65.96 329.272,67.4 C328.472,65.704 327.128,64.744 324.888,64.744 C322.808,64.744 321.4,65.864 320.088,67.176 L319.96,67.176 L319.64,65.128 L315.8,65.128 L315.8,81 Z M347.224,81.384 C349.016,81.384 350.488,80.552 351.832,79.368 L351.96,79.368 L352.28,81 L356.12,81 L356.12,71.912 C356.12,67.048 353.88,64.744 349.816,64.744 C347.32,64.744 345.048,65.608 343.032,66.824 L344.728,69.928 C346.264,69.032 347.576,68.488 348.92,68.488 C350.648,68.488 351.32,69.384 351.416,70.792 L350.694743,70.8727759 C344.939771,71.5773718 342.488,73.3865098 342.488,76.584 C342.488,79.272 344.312,81.384 347.224,81.384 Z M348.824,77.736 C347.704,77.736 347,77.256 347,76.232 C347,75.016 348.088,74.056 351.416,73.608 L351.416,76.392 C350.584,77.224 349.88,77.736 348.824,77.736 Z M365.624,81.384 C367.16,81.384 368.312,81.064 369.144,80.808 L368.408,77.384 C367.992,77.544 367.416,77.704 366.904,77.704 C365.656,77.704 364.856,76.968 364.856,75.176 L364.856,68.808 L368.664,68.808 L368.664,65.128 L364.856,65.128 L364.856,60.904 L360.952,60.904 L360.408,65.128 L357.976,65.32 L357.976,68.808 L360.152,68.808 L360.152,75.24 C360.152,78.92 361.688,81.384 365.624,81.384 Z M371.768,81 L376.472,81 L376.472,65.128 L371.768,65.128 L371.768,81 Z M374.104,62.792 C375.672,62.792 376.76,61.832 376.76,60.328 C376.76,58.856 375.672,57.864 374.104,57.864 C372.536,57.864 371.448,58.856 371.448,60.328 C371.448,61.832 372.536,62.792 374.104,62.792 Z M387.416,81.384 C391.416,81.384 395.128,78.344 395.128,73.064 C395.128,67.784 391.416,64.744 387.416,64.744 C383.384,64.744 379.672,67.784 379.672,73.064 C379.672,78.344 383.384,81.384 387.416,81.384 Z M387.416,77.576 C385.464,77.576 384.504,75.816 384.504,73.064 C384.504,70.312 385.464,68.552 387.416,68.552 C389.336,68.552 390.328,70.312 390.328,73.064 C390.328,75.816 389.336,77.576 387.416,77.576 Z M398.36,81 L398.36,65.128 L402.2,65.128 L402.52,67.144 L402.648,67.144 C403.992,65.864 405.592,64.744 407.736,64.744 C411.192,64.744 412.664,67.176 412.664,71.144 L412.664,81 L407.96,81 L407.96,71.752 C407.96,69.448 407.352,68.744 406.008,68.744 C404.824,68.744 404.088,69.288 403.064,70.28 L403.064,81 L398.36,81 Z" id="path-2"></path>
        <path d="M203.832,121.384 C208.824,121.384 211.704,118.376 211.704,114.92 C211.704,111.976 210.104,110.28 207.576,109.256 L204.063721,107.832251 C202.690906,107.267341 201.72,106.7792 201.72,105.704 C201.72,104.52 202.744,103.816 204.376,103.816 C206.04,103.816 207.32,104.424 208.696,105.48 L211.096,102.504 C209.304,100.712 206.776,99.752 204.376,99.752 C200.024,99.752 196.952,102.504 196.952,105.96 C196.952,109 199,110.792 201.144,111.656 L204.720148,113.168444 C206.049778,113.739556 206.872,114.210667 206.872,115.304 C206.872,116.552 205.912,117.32 203.96,117.32 C202.232,117.32 200.312,116.424 198.808,115.144 L196.12,118.376 C198.232,120.36 201.112,121.384 203.832,121.384 Z M221.976,121.384 C223.864,121.384 225.976,120.712 227.608,119.592 L226.04,116.744 C224.888,117.448 223.8,117.8 222.616,117.8 C220.504,117.8 218.904,116.744 218.488,114.44 L227.992,114.44 C228.088,114.056 228.184,113.192 228.184,112.36 C228.184,108.04 225.944,104.744 221.432,104.744 C217.624,104.744 213.944,107.912 213.944,113.064 C213.944,118.312 217.432,121.384 221.976,121.384 Z M218.456,111.336 C218.776,109.32 220.056,108.328 221.528,108.328 C223.416,108.328 224.184,109.576 224.184,111.336 L218.456,111.336 Z M231.448,121 L236.152,121 L236.152,111.784 C236.984,109.64 238.456,108.872 239.64,108.872 C240.312,108.872 240.792,108.968 241.368,109.128 L242.136,105.064 C241.688,104.872 241.144,104.744 240.248,104.744 C238.616,104.744 236.888,105.768 235.736,107.912 L235.608,107.912 L235.288,105.128 L231.448,105.128 L231.448,121 Z M248.056,121 L253.496,121 L258.68,105.128 L254.168,105.128 L252.088,112.616 C251.672,114.184 251.256,115.848 250.872,117.512 L250.744,117.512 L249.9952,114.537536 C249.8288,113.88576 249.6624,113.2432 249.496,112.616 L247.448,105.128 L242.712,105.128 L248.056,121 Z M261.144,121 L265.848,121 L265.848,105.128 L261.144,105.128 L261.144,121 Z M263.48,102.792 C265.048,102.792 266.136,101.832 266.136,100.328 C266.136,98.856 265.048,97.864 263.48,97.864 C261.912,97.864 260.824,98.856 260.824,100.328 C260.824,101.832 261.912,102.792 263.48,102.792 Z M276.888,121.384 C278.616,121.384 280.568,120.872 282.136,119.496 L280.28,116.424 C279.448,117.064 278.456,117.576 277.432,117.576 C275.384,117.576 273.88,115.816 273.88,113.064 C273.88,110.312 275.32,108.552 277.592,108.552 C278.328,108.552 278.968,108.84 279.736,109.48 L281.944,106.44 C280.76,105.448 279.256,104.744 277.304,104.744 C272.92,104.744 269.048,107.784 269.048,113.064 C269.048,118.344 272.472,121.384 276.888,121.384 Z M291.128,121.384 C293.016,121.384 295.128,120.712 296.76,119.592 L295.192,116.744 C294.04,117.448 292.952,117.8 291.768,117.8 C289.656,117.8 288.056,116.744 287.64,114.44 L297.144,114.44 C297.24,114.056 297.336,113.192 297.336,112.36 C297.336,108.04 295.096,104.744 290.584,104.744 C286.776,104.744 283.096,107.912 283.096,113.064 C283.096,118.312 286.584,121.384 291.128,121.384 Z M287.608,111.336 C287.928,109.32 289.208,108.328 290.68,108.328 C292.568,108.328 293.336,109.576 293.336,111.336 L287.608,111.336 Z M305.272,121.384 C303.192,121.384 300.792,120.488 299.192,119.176 L301.304,116.232 C302.744,117.32 304.056,117.896 305.4,117.896 C306.808,117.896 307.416,117.384 307.416,116.552 C307.416,115.54 305.946556,115.057 304.38772,114.45522 L303.809461,114.226158 C301.988287,113.465249 300.056,112.15871 300.056,109.704 C300.056,106.76 302.488,104.744 306.136,104.744 C308.568,104.744 310.392,105.736 311.736,106.76 L309.624,109.576 C308.504,108.744 307.384,108.232 306.296,108.232 C305.08,108.232 304.472,108.68 304.472,109.48 C304.472,110.504 305.88,110.888 307.512,111.496 L307.880804,111.634363 C309.795049,112.37434 311.8,113.528485 311.8,116.264 C311.8,119.144 309.528,121.384 305.272,121.384 Z" id="path-3"></path>
    </defs>
    <g id="Page-1" stroke="none" stroke-width="1" fill="none" fill-rule="evenodd">
        <g id="gsa-tts-identity" transform="translate(0.000000, 1.000000)">
            <g id="Technology" fill-rule="nonzero">
                <use fill="#000000" xlink:href="#path-1"></use>
                <use fill="#202020" xlink:href="#path-1"></use>
            </g>
            <g id="Transformation" fill-rule="nonzero">
                <use fill="#000000" xlink:href="#path-2"></use>
                <use fill="#202020" xlink:href="#path-2"></use>
            </g>
            <g id="Services" fill-rule="nonzero">
                <use fill="#000000" xlink:href="#path-3"></use>
                <use fill="#202020" xlink:href="#path-3"></use>
            </g>
            <path d="M164.5,0 L164.5,140" id="Line" stroke="#202020" stroke-width="2" stroke-linecap="square"></path>
            <g id="GSA" transform="translate(0.000000, 10.000000)" fill="#202020" fill-rule="nonzero">
                <path d="M119.083019,0.000905660377 L119.083019,119.194868 L-1.13686838e-13,119.194868 L-1.13686838e-13,0.000905660377 L119.083019,0.000905660377 Z M23.076566,61.2295472 C13.4075094,63.0861509 8.52373585,71.8042642 8.52373585,79.9699245 C8.52373585,86.0695472 9.73166038,91.871434 16.6905283,96.6170943 C23.0627136,100.963029 32.559243,100.901271 39.9182658,98.8061337 L40.3248679,98.6876604 L40.2988302,78.6091698 L26.8509057,78.6091698 L26.7909057,84.5140755 L33.7576981,84.4993585 L33.7984528,94.0461509 C33.7984528,94.0461509 25.7222264,94.9223774 22.2603396,93.1121887 C16.9792075,90.3499245 14.7988302,85.3257736 14.9120377,79.9699245 C15.0161887,74.9457736 16.5388302,70.8352075 21.2969434,68.0344528 C26.5361887,64.9533279 34.5608571,65.9511696 39.2476564,68.810463 L39.5143019,68.9774717 L39.7248679,62.6955849 C35.4309057,61.0201132 29.4252453,60.0103019 23.076566,61.2295472 Z M83.624717,81.0671321 L75.2688679,99.8652453 L81.5349057,99.8652453 L97.4088679,92.136566 L92.9190566,88.5852453 L84.7737736,92.7637358 L88.1145283,85.1403396 L83.624717,81.0671321 Z M102.401887,80.952566 L97.9811321,85.2669057 L104.148679,99.8650189 L110.937736,99.8650189 L102.401887,80.952566 Z M56.0156604,61.4063774 C52.920566,62.5101509 50.3337736,65.2078868 49.5945283,68.2678868 C46.515283,81.0218491 63.2281132,80.7569434 65.339434,86.915434 C65.5160377,88.9373208 65.1990566,90.9297736 63.9333962,92.1048679 C60.3093614,95.471312 54.1480666,93.9265792 50.6752915,92.1229268 L50.4741509,92.016566 L49.8583019,98.2622264 C55.7518868,100.374679 63.1556604,100.663358 68.2432075,96.6795849 C70.0103774,94.9124151 72.0175472,92.1105283 71.8488679,88.4109057 C71.3224528,76.8875094 61.6454717,78.2946792 56.1922642,72.3139245 C55.455283,70.3588302 56.0235849,67.7810943 57.6888679,66.860717 C61.0296226,65.0120377 66.0435849,66.0693962 69.5632075,67.8286415 C69.4749057,67.566 70.4020755,61.9101509 70.4020755,61.9101509 C66.2020755,60.5822264 60.3277358,59.4150566 56.0156604,61.4063774 Z M93.1536226,60.696 L84.0426792,80.7541132 L90.5170189,80.7541132 L93.3743774,74.2933585 L96.0517358,80.7541132 L102.317774,80.7541132 L93.1536226,60.696 Z" id="Combined-Shape"></path>
                <g id="Copyright" transform="translate(124.380226, 0.000000)">
                    <path d="M4.01366038,4.01230189 L3.11592453,4.01230189 L3.11592453,2.64475472 L3.95479245,2.64475472 C4.80611321,2.64475472 5.11856604,2.81683019 5.11856604,3.32286792 C5.11856604,3.80513208 4.77101887,4.01230189 4.01366038,4.01230189 M4.60007547,4.53984906 C5.36988679,4.48324528 5.89856604,3.95683019 5.89856604,3.21871698 C5.89856604,2.7930566 5.58950943,2.34475472 5.18422642,2.17381132 C4.86271698,2.04701887 4.64422642,2.02324528 3.9434717,2.02324528 L2.38007547,2.02324528 L2.38007547,6.57645283 L3.11592453,6.57645283 L3.11592453,4.644 L3.55290566,4.644 C4.11554717,4.644 4.32271698,4.83871698 4.90913208,5.86324528 L5.31101887,6.57645283 L6.20875472,6.57645283 L5.65743396,5.68890566 C5.19667925,4.95532075 4.94309434,4.67909434 4.60007547,4.53984906" id="Fill-9"></path>
                    <path d="M4.24188679,7.77283019 C2.28792453,7.77283019 0.703018868,6.18566038 0.703018868,4.23056604 C0.703018868,2.28792453 2.28792453,0.700754717 4.24188679,0.700754717 C6.18566038,0.700754717 7.77283019,2.28792453 7.77283019,4.23056604 C7.77283019,6.18566038 6.18566038,7.77283019 4.24188679,7.77283019 M4.24188679,7.10542736e-15 C1.89849057,7.10542736e-15 -4.97379915e-14,1.89735849 -4.97379915e-14,4.23056604 C-4.97379915e-14,6.57622642 1.89849057,8.47358491 4.24188679,8.47358491 C6.57735849,8.47358491 8.47358491,6.57622642 8.47358491,4.23056604 C8.47358491,1.89735849 6.57735849,7.10542736e-15 4.24188679,7.10542736e-15" id="Fill-11"></path>
                </g>
            </g>
        </g>
    </g>
</svg>